<?xml version="1.0" encoding="UTF-8"?>
<svg id="Layer_1" data-name="Layer 1" xmlns="http://www.w3.org/2000/svg" viewBox="0 0 5386.67 1132.38">
  <defs>
    <style>
      .cls-1 {
        fill: #17704f;
      }
    </style>
  </defs>
  <g>
    <g>
      <path class="cls-1" d="M1233.61,18.3c0-10.11-8.19-18.3-18.3-18.3h-311.79s-56.1,0-56.1,0c-10.11,0-18.3,8.19-18.3,18.3v11.14c0,10.11,8.19,18.3,18.3,18.3h249.98c10.11,0,18.3,8.19,18.3,18.3V640.79c0,10.11-8.19,18.3-18.3,18.3h-249.98c-10.11,0-18.3,8.19-18.3,18.3v11.41c0,10.11,8.19,18.3,18.3,18.3h56.1s311.79,0,311.79,0c10.11,0,18.3-8.19,18.3-18.3V18.3Z"/>
      <path class="cls-1" d="M997.8,114.04c0-10.11-8.19-18.3-18.3-18.3h-224.91s-56.26,0-56.26,0c-10.11,0-18.3,8.19-18.3,18.3v11.41c0,10.11,8.19,18.3,18.3,18.3h163.26c10.11,0,18.3,8.19,18.3,18.3v383c0,10.11-8.19,18.3-18.3,18.3h-163.26c-10.11,0-18.3,8.19-18.3,18.3v11.4c0,10.11,8.19,18.3,18.3,18.3h56.26s224.91,0,224.91,0c10.11,0,18.3-8.19,18.3-18.3V114.04Z"/>
      <path class="cls-1" d="M761.84,209.78c0-10.11-8.19-18.3-18.3-18.3h-138.05s-56.24,0-56.24,0c-10.11,0-18.3,8.19-18.3,18.3v11.41c0,10.11,8.19,18.3,18.3,18.3h76.38c10.11,0,18.3,8.19,18.3,18.3v191.5c0,10.11-8.19,18.3-18.3,18.3h-76.38c-10.11,0-18.3,8.19-18.3,18.3v11.41c0,10.11,8.19,18.3,18.3,18.3h56.24s138.05,0,138.05,0c10.11,0,18.3-8.19,18.3-18.3V209.78Z"/>
      <path class="cls-1" d="M526.01,305.54c0-10.11-8.19-18.3-18.3-18.3h-51.31s-56.24,0-56.24,0c-10.11,0-18.3,8.19-18.3,18.3v29.71s26.24,0,26.24,0v36.6s-26.24,0-26.24,0v29.71c0,10.11,8.19,18.3,18.3,18.3h56.24s51.31,0,51.31,0c10.11,0,18.3-8.19,18.3-18.3v-96.01Z"/>
      <path class="cls-1" d="M408.11,335.25h-26.24s-56.24,0-56.24,0c-10.11,0-18.3,8.19-18.3,18.3h0c0,10.11,8.19,18.3,18.3,18.3h56.24s26.24,0,26.24,0v-36.6Z"/>
    </g>
    <g>
      <path class="cls-1" d="M0,443.58c0-10.11,8.19-18.3,18.3-18.3H330.08s56.1,0,56.1,0c10.11,0,18.3,8.19,18.3,18.3v11.14c0,10.11-8.19,18.3-18.3,18.3H136.21c-10.11,0-18.3,8.19-18.3,18.3v574.75c0,10.11,8.19,18.3,18.3,18.3h249.98c10.11,0,18.3,8.19,18.3,18.3v11.41c0,10.11-8.19,18.3-18.3,18.3h-56.1s-311.79,0-311.79,0c-10.11,0-18.3-8.19-18.3-18.3V443.58Z"/>
      <path class="cls-1" d="M235.81,539.33c0-10.11,8.19-18.3,18.3-18.3h224.91s56.26,0,56.26,0c10.11,0,18.3,8.19,18.3,18.3v11.41c0,10.11-8.19,18.3-18.3,18.3h-163.26c-10.11,0-18.3,8.19-18.3,18.3v383c0,10.11,8.19,18.3,18.3,18.3h163.26c10.11,0,18.3,8.19,18.3,18.3v11.4c0,10.11-8.19,18.3-18.3,18.3h-56.26s-224.91,0-224.91,0c-10.11,0-18.3-8.19-18.3-18.3v-479Z"/>
      <path class="cls-1" d="M471.77,635.07c0-10.11,8.19-18.3,18.3-18.3h138.05s56.24,0,56.24,0c10.11,0,18.3,8.19,18.3,18.3v11.41c0,10.11-8.19,18.3-18.3,18.3h-76.38c-10.11,0-18.3,8.19-18.3,18.3v191.5c0,10.11,8.19,18.3,18.3,18.3h76.38c10.11,0,18.3,8.19,18.3,18.3v11.41c0,10.11-8.19,18.3-18.3,18.3h-56.24s-138.05,0-138.05,0c-10.11,0-18.3-8.19-18.3-18.3v-287.51Z"/>
      <path class="cls-1" d="M707.6,730.82c0-10.11,8.19-18.3,18.3-18.3h51.31s56.24,0,56.24,0c10.11,0,18.3,8.19,18.3,18.3v29.71s-26.24,0-26.24,0v36.6s26.24,0,26.24,0v29.71c0,10.11-8.19,18.3-18.3,18.3h-56.24s-51.31,0-51.31,0c-10.11,0-18.3-8.19-18.3-18.3v-96.01Z"/>
      <path class="cls-1" d="M825.51,760.53h26.24s56.24,0,56.24,0c10.11,0,18.3,8.19,18.3,18.3h0c0,10.11-8.19,18.3-18.3,18.3h-56.24s-26.24,0-26.24,0v-36.6Z"/>
    </g>
  </g>
  <g>
    <path class="cls-1" d="M1505.42,2.59h22.65c49.3,0,89.27,39.97,89.27,89.27h0c0,49.3-39.97,89.27-89.27,89.27h-22.65c-49.3,0-89.27-39.97-89.27-89.27h0c0-49.3,39.97-89.27,89.27-89.27Zm-82.61,269.14h189.2V937.91h-189.2V271.73Z"/>
    <path class="cls-1" d="M1830.27,933.25c-43.97-15.53-80.84-37.74-110.59-66.62-29.77-28.85-49.09-62.39-57.96-100.59l171.88-54.63c1.77,12.45,6.87,26.64,15.32,42.63,8.43,15.98,23.52,31.54,45.3,46.63,21.75,15.11,52.17,22.65,91.26,22.65,31.98,0,56.83-6.2,74.62-18.66,17.76-12.43,26.65-28.41,26.65-47.96,0-17.76-6-32.41-17.99-43.97-11.99-11.53-33.54-20.42-64.62-26.65l-94.6-18.66c-49.76-9.76-90.6-22.42-122.58-37.97-31.98-15.53-56.42-36.64-73.28-63.28-16.88-26.65-25.31-61.29-25.31-103.93s11.53-78.61,34.64-110.59c23.09-31.98,56.17-56.62,99.27-73.95,43.07-17.32,93.93-25.98,152.55-25.98,75.49,0,136.78,15.32,183.87,45.97,47.07,30.65,79.48,66.41,97.26,107.25l-155.88,70.62c-7.12-18.66-16.89-34.85-29.31-48.63-12.45-13.76-27.77-24.65-45.97-32.65-18.22-7.99-37.97-11.99-59.29-11.99-31.1,0-54.63,6-70.61,17.99-15.99,11.99-23.98,27.31-23.98,45.97s6.43,31.54,19.32,41.31c12.87,9.78,37.08,17.78,72.61,23.98l91.94,17.32c69.28,13.33,124.78,36.64,166.55,69.95,41.74,33.31,62.62,79.28,62.62,137.9,0,44.43-12.22,83.07-36.64,115.92-24.44,32.87-59.96,58.42-106.59,76.61-46.63,18.19-101.92,27.31-165.88,27.31-52.42,0-100.59-7.79-144.56-23.32Z"/>
    <path class="cls-1" d="M2480.45,915.94c-51.09-28.86-90.6-70.16-118.58-123.91-27.98-53.74-41.97-116.58-41.97-188.54s14.66-129.24,43.97-182.53c29.31-53.3,69.49-94.81,120.58-124.58,51.06-29.75,108.59-44.63,172.54-44.63,72.82,0,134.57,17.55,185.2,52.63,50.63,35.1,87.71,82.83,111.25,143.23,23.52,60.41,32.19,127.91,25.98,202.52h-470.33c1.77,38.2,9.33,69.51,22.65,93.93,13.33,24.44,30.65,42.43,51.96,53.96,21.32,11.55,46.17,17.32,74.61,17.32,39.08,0,70.62-10.2,94.6-30.64,23.98-20.42,43.97-48.84,59.96-85.27l169.21,65.28c-15.11,33.76-35.31,65.08-60.62,93.93-25.31,28.87-59.75,52.86-103.26,71.95-43.53,19.09-96.83,28.64-159.89,28.64-67.51,0-126.8-14.44-177.87-43.3Zm291.13-469c-11.55-19.09-26.87-33.74-45.97-43.97-19.11-10.2-41.97-15.32-68.61-15.32-38.2,0-69.74,11.11-94.6,33.31-24.88,22.21-40.43,54.19-46.64,95.93h277.13c-2.66-27.52-9.79-50.84-21.32-69.95Z"/>
    <path class="cls-1" d="M3058.29,271.73h170.55c0,33.77-5.56,69.29-16.65,106.6-11.12,37.3-24.65,69.28-40.64,95.93h79.94c15.99-72.82,40.63-127.01,73.94-162.55,33.31-35.52,83.71-53.3,151.23-53.3,19.53,0,32.85,.46,39.97,1.33v192.53c-28.53,0-156.17,4.03-185.87,18.66-27.98,13.78-48.86,37.53-62.62,71.28-13.78,33.76-20.66,80.4-20.66,139.89v255.82h-189.2V271.73Z"/>
    <path class="cls-1" d="M3667.26,915.94c-25.31-14.66-44.63-35.08-57.96-61.29-13.33-26.19-19.99-56.62-19.99-91.26V452.27h-139.9v-193.86h139.9V62.55h189.2v195.86h173.21v193.86h-173.21v276.47c0,20.44,4.66,35.31,13.99,44.63,9.32,9.33,24.19,13.99,44.63,13.99h143.9v150.55h-222.51c-35.54,0-65.95-7.32-91.27-21.98Z"/>
    <path class="cls-1" d="M4156.24,915.94c-51.09-28.86-90.6-70.16-118.58-123.91-27.98-53.74-41.97-116.58-41.97-188.54s14.66-129.24,43.97-182.53c29.31-53.3,69.49-94.81,120.58-124.58,51.06-29.75,108.59-44.63,172.54-44.63,72.82,0,134.57,17.55,185.2,52.63,50.63,35.1,87.71,82.83,111.25,143.23,23.52,60.41,32.19,127.91,25.98,202.52h-470.33c1.77,38.2,9.33,69.51,22.65,93.93,13.33,24.44,30.65,42.43,51.96,53.96,21.32,11.55,46.17,17.32,74.61,17.32,39.08,0,70.62-10.2,94.6-30.64,23.98-20.42,43.97-48.84,59.96-85.27l169.21,65.28c-15.11,33.76-35.31,65.08-60.62,93.93-25.31,28.87-59.75,52.86-103.26,71.95-43.53,19.09-96.83,28.64-159.89,28.64-67.51,0-126.8-14.44-177.87-43.3Zm291.13-469c-11.55-19.09-26.87-33.74-45.97-43.97-19.11-10.2-41.97-15.32-68.61-15.32-38.2,0-69.74,11.11-94.6,33.31-24.88,22.21-40.43,54.19-46.64,95.93h277.13c-2.66-27.52-9.79-50.84-21.32-69.95Z"/>
    <path class="cls-1" d="M4873.71,914.6c-54.19-29.75-96.59-71.49-127.24-125.25-30.64-53.73-45.96-115.68-45.96-185.87s15.75-131.9,47.3-185.2c31.52-53.29,74.38-94.37,128.57-123.24,54.17-28.86,115.02-43.31,182.53-43.31,51.5,0,98.59,8.66,141.23,25.98,42.63,17.33,78.82,41.09,108.59,71.28,29.75,30.21,52.17,64.42,67.29,102.6l-174.54,65.28c-13.32-37.3-32.87-65.95-58.62-85.94-25.77-19.99-55.96-29.98-90.6-29.98-30.21,0-57.52,7.56-81.94,22.65-24.44,15.11-43.76,37.77-57.96,67.95-14.21,30.2-21.32,67.51-21.32,111.91s7.33,81.94,21.98,112.59c14.66,30.64,34.19,53.75,58.63,69.28,24.42,15.55,51.73,23.32,81.94,23.32,38.18,0,69.72-10.43,94.6-31.31,24.86-20.86,44.84-52.63,59.96-95.27l178.54,63.96c-25.77,64.85-67.74,116.58-125.91,155.22-58.19,38.64-125.91,57.96-203.19,57.96-68.41,0-129.7-14.88-183.87-44.63Z"/>
  </g>
</svg>