<?xml version="1.0" encoding="UTF-8"?>
<svg id="Capa_2" data-name="Capa 2" xmlns="http://www.w3.org/2000/svg" viewBox="0 0 261.82 55.04">
  <defs>
    <style>
      .cls-1 {
        fill: #ebede6;
      }
    </style>
  </defs>
  <g id="Layer_1" data-name="Layer 1">
    <g>
      <path class="cls-1" d="M35.26,41.02h5.23c.49,0,.89-.4.89-.89v-1.44h2.73c.49,0,.89-.4.89-.89s-.4-.89-.89-.89h-2.73v-1.44c0-.49-.4-.89-.89-.89h-5.23c-.49,0-.89.4-.89.89v4.67c0,.49.4.89.89.89Z"/>
      <path class="cls-1" d="M59.07,0h-17.88c-.49,0-.89.4-.89.89v.54c0,.49.4.89.89.89h12.15c.49,0,.89.4.89.89v27.94c0,.49-.4.89-.89.89h-12.15c-.49,0-.89.4-.89.89v.55c0,.49.4.89.89.89h17.88c.49,0,.89-.4.89-.89V.89c0-.49-.4-.89-.89-.89Z"/>
      <path class="cls-1" d="M33.94,6.99h7.93c.49,0,.89.4.89.89v18.62c0,.49-.4.89-.89.89h-7.93c-.49,0-.89.4-.89.89v.55c0,.49.4.89.89.89h13.67c.49,0,.89-.4.89-.89V5.54c0-.49-.4-.89-.89-.89h-13.67c-.49,0-.89.4-.89.89v.55c0,.49.4.89.89.89Z"/>
      <path class="cls-1" d="M26.7,25.06h9.44c.49,0,.89-.4.89-.89v-13.97c0-.49-.4-.89-.89-.89h-9.44c-.49,0-.89.4-.89.89v.55c0,.49.4.89.89.89h3.71c.49,0,.89.4.89.89v9.31c0,.49-.4.89-.89.89h-3.71c-.49,0-.89.4-.89.89v.55c0,.49.4.89.89.89Z"/>
      <path class="cls-1" d="M18.77,52.71H6.62c-.49,0-.89-.4-.89-.89v-27.94c0-.49.4-.89.89-.89h12.15c.49,0,.89-.4.89-.89v-.54c0-.49-.4-.89-.89-.89H.89c-.49,0-.89.4-.89.89v32.59c0,.49.4.89.89.89h17.88c.49,0,.89-.4.89-.89v-.55c0-.49-.4-.89-.89-.89Z"/>
      <path class="cls-1" d="M26.02,48.05h-7.93c-.49,0-.89-.4-.89-.89v-18.62c0-.49.4-.89.89-.89h7.93c.49,0,.89-.4.89-.89v-.55c0-.49-.4-.89-.89-.89h-13.67c-.49,0-.89.4-.89.89v23.28c0,.49.4.89.89.89h13.67c.49,0,.89-.4.89-.89v-.55c0-.49-.4-.89-.89-.89Z"/>
      <path class="cls-1" d="M33.26,29.98h-9.44c-.49,0-.89.4-.89.89v13.97c0,.49.4.89.89.89h9.44c.49,0,.89-.4.89-.89v-.55c0-.49-.4-.89-.89-.89h-3.71c-.49,0-.89-.4-.89-.89v-9.31c0-.49.4-.89.89-.89h3.71c.49,0,.89-.4.89-.89v-.55c0-.49-.4-.89-.89-.89Z"/>
      <rect class="cls-1" x="69.15" y="13.21" width="9.2" height="32.38"/>
      <path class="cls-1" d="M74.27.13h-1.1c-2.4,0-4.34,1.94-4.34,4.34s1.94,4.34,4.34,4.34h1.1c2.4,0,4.34-1.94,4.34-4.34s-1.94-4.34-4.34-4.34Z"/>
      <path class="cls-1" d="M107.97,29.11c-2.03-1.62-4.73-2.75-8.09-3.4l-4.47-.84c-1.73-.3-2.9-.69-3.53-1.17-.63-.47-.94-1.14-.94-2.01,0-.91.39-1.65,1.17-2.23.78-.58,1.92-.87,3.43-.87,1.04,0,2,.19,2.88.58.88.39,1.63.92,2.23,1.59.6.67,1.08,1.46,1.42,2.36l7.58-3.43c-.86-1.99-2.44-3.72-4.73-5.21-2.29-1.49-5.27-2.23-8.94-2.23-2.85,0-5.32.42-7.41,1.26-2.09.84-3.7,2.04-4.82,3.59-1.12,1.55-1.68,3.35-1.68,5.38s.41,3.76,1.23,5.05c.82,1.29,2.01,2.32,3.56,3.08,1.55.76,3.54,1.37,5.96,1.85l4.6.91c1.51.3,2.56.73,3.14,1.3.58.56.87,1.27.87,2.14,0,.95-.43,1.73-1.3,2.33-.86.61-2.07.91-3.63.91-1.9,0-3.38-.37-4.44-1.1-1.06-.73-1.79-1.49-2.2-2.27-.41-.78-.66-1.47-.74-2.07l-8.35,2.66c.43,1.86,1.37,3.49,2.82,4.89,1.45,1.4,3.24,2.48,5.38,3.24,2.14.75,4.48,1.13,7.03,1.13,3.11,0,5.8-.44,8.06-1.33,2.27-.88,3.99-2.13,5.18-3.72,1.19-1.6,1.78-3.47,1.78-5.63,0-2.85-1.01-5.08-3.04-6.7Z"/>
      <path class="cls-1" d="M133.8,38.14c-1.17.99-2.7,1.49-4.6,1.49-1.38,0-2.59-.28-3.63-.84-1.04-.56-1.88-1.44-2.53-2.62-.65-1.19-1.01-2.71-1.1-4.57h22.86c.3-3.63-.12-6.91-1.26-9.84-1.14-2.94-2.95-5.26-5.41-6.96-2.46-1.71-5.46-2.56-9-2.56-3.11,0-5.9.72-8.39,2.17-2.48,1.45-4.44,3.46-5.86,6.06-1.42,2.59-2.14,5.55-2.14,8.87,0,3.5.68,6.55,2.04,9.16,1.36,2.61,3.28,4.62,5.76,6.02,2.48,1.4,5.36,2.1,8.65,2.1,3.07,0,5.66-.46,7.77-1.39,2.11-.93,3.79-2.09,5.02-3.5,1.23-1.4,2.21-2.92,2.95-4.57l-8.22-3.17c-.78,1.77-1.75,3.15-2.91,4.14ZM124.54,20.46c1.21-1.08,2.74-1.62,4.6-1.62,1.3,0,2.41.25,3.33.74.93.5,1.67,1.21,2.23,2.14.56.93.91,2.06,1.04,3.4h-13.47c.3-2.03,1.06-3.58,2.27-4.66Z"/>
      <path class="cls-1" d="M184.33,37.59c-.45-.45-.68-1.18-.68-2.17v-13.44h8.42v-9.42h-8.42V3.04h-9.2v9.52h-5.45s-.01,0-.02,0c0,0,0,0,0,0h-1.32v.05c-2.62.21-4.63,1.05-6.03,2.54-1.62,1.73-2.82,4.36-3.59,7.9h-3.89c.78-1.3,1.43-2.85,1.98-4.66.54-1.81.81-3.54.81-5.18h-8.29v32.38h9.2v-12.43c0-2.89.33-5.16,1-6.8.67-1.64,1.68-2.79,3.04-3.46,1.44-.71,7.6-.91,9.02-.91h3.55v15.12c0,1.68.32,3.16.97,4.44.65,1.27,1.59,2.27,2.82,2.98,1.23.71,2.71,1.07,4.44,1.07h10.81v-7.32h-6.99c-.99,0-1.72-.23-2.17-.68Z"/>
      <path class="cls-1" d="M215.25,38.14c-1.17.99-2.7,1.49-4.6,1.49-1.38,0-2.59-.28-3.63-.84-1.04-.56-1.88-1.44-2.53-2.62-.65-1.19-1.01-2.71-1.1-4.57h22.86c.3-3.63-.12-6.91-1.26-9.84-1.14-2.94-2.95-5.26-5.41-6.96-2.46-1.71-5.46-2.56-9-2.56-3.11,0-5.9.72-8.39,2.17-2.48,1.45-4.44,3.46-5.86,6.06-1.42,2.59-2.14,5.55-2.14,8.87,0,3.5.68,6.55,2.04,9.16,1.36,2.61,3.28,4.62,5.76,6.02,2.48,1.4,5.36,2.1,8.65,2.1,3.07,0,5.66-.46,7.77-1.39,2.11-.93,3.79-2.09,5.02-3.5,1.23-1.4,2.21-2.92,2.95-4.57l-8.22-3.17c-.78,1.77-1.75,3.15-2.91,4.14ZM205.99,20.46c1.21-1.08,2.74-1.62,4.6-1.62,1.3,0,2.41.25,3.33.74.93.5,1.67,1.21,2.23,2.14.56.93.91,2.06,1.04,3.4h-13.47c.3-2.03,1.06-3.58,2.27-4.66Z"/>
      <path class="cls-1" d="M253.14,33.15c-.73,2.07-1.71,3.62-2.91,4.63-1.21,1.01-2.74,1.52-4.6,1.52-1.47,0-2.8-.38-3.98-1.13-1.19-.75-2.14-1.88-2.85-3.37-.71-1.49-1.07-3.31-1.07-5.47s.35-3.97,1.04-5.44c.69-1.47,1.63-2.57,2.82-3.3,1.19-.73,2.51-1.1,3.98-1.1,1.68,0,3.15.49,4.4,1.46,1.25.97,2.2,2.36,2.85,4.18l8.48-3.17c-.73-1.86-1.82-3.52-3.27-4.99-1.45-1.47-3.21-2.62-5.28-3.46-2.07-.84-4.36-1.26-6.86-1.26-3.28,0-6.24.7-8.87,2.1-2.63,1.4-4.72,3.4-6.25,5.99-1.53,2.59-2.3,5.59-2.3,9s.74,6.42,2.23,9.03c1.49,2.61,3.55,4.64,6.18,6.09,2.63,1.45,5.61,2.17,8.94,2.17,3.76,0,7.05-.94,9.88-2.82,2.83-1.88,4.87-4.39,6.12-7.54l-8.68-3.11Z"/>
      <path class="cls-1" d="M24.68,13.96h-5.23c-.49,0-.89.4-.89.89v1.44h-2.73c-.49,0-.89.4-.89.89s.4.89.89.89h2.73v1.44c0,.49.4.89.89.89h5.23c.49,0,.89-.4.89-.89v-4.67c0-.49-.4-.89-.89-.89Z"/>
    </g>
  </g>
</svg>